<svg width="512" height="512" viewBox="0 0 512 512" fill="none" xmlns="http://www.w3.org/2000/svg" role="img" aria-labelledby="title">
  <title id="title">El Ojo de Iberoamerica</title>
  <path d="M0 314L68 300L30 228L112 229L93 149L173 171L173 89L245 130L264 51L325 116L364 35L408 104L456 53C484 102 502 152 512 203C469 182 422 170 371 168C233 163 115 245 76 418C47 390 22 355 0 314Z" fill="#00AEB8"/>
  <path d="M113 444C115 355 151 283 219 229C293 171 399 163 512 213C506 302 438 404 331 453C258 487 184 485 113 444Z" fill="#00AEB8"/>
  <path d="M163 414C181 300 260 222 365 223C403 223 438 231 471 246C460 312 408 383 330 419C272 446 217 444 163 414Z" fill="#050505"/>
  <path d="M193 319C195 375 237 414 293 402C348 391 394 333 395 278C396 253 386 234 366 224C405 224 440 232 471 246C460 312 408 383 330 419C272 446 217 444 163 414C168 376 178 344 193 319Z" fill="#00AEB8"/>
</svg>
